<?xml version="1.0" encoding="iso-8859-1"?>
<!-- Uploaded to: SVG Repo, www.svgrepo.com, Generator: SVG Repo Mixer Tools -->
<svg version="1.1" id="Layer_1" xmlns="http://www.w3.org/2000/svg" xmlns:xlink="http://www.w3.org/1999/xlink" 
	 viewBox="0 0 511.991 511.991" xml:space="preserve">
<path style="fill:#434A54;" d="M501.335,367.993h-42.671c-5.891,0-10.672-4.78-10.672-10.655c0-5.906,4.781-10.688,10.672-10.688
	h42.671c5.891,0,10.656,4.781,10.656,10.688C511.991,363.213,507.225,367.993,501.335,367.993z"/>
<path style="fill:#656D78;" d="M490.351,333.4c-0.234-0.891-5.578-22.156-13.703-43.812c-12.859-34.295-24.984-49.592-39.312-49.592
	h-85.342c-17.641,0-32,14.352-32,31.999v63.999c0,17.656,14.359,31.999,32,31.999h106.67c17.641,0,32-14.343,32-31.999
	C490.664,335.119,490.555,334.244,490.351,333.4z"/>
<path style="fill:#E6E9ED;" d="M436.976,201.184c-10.672-40.687-34.093-89.186-84.982-89.186H32c-17.641,0-32,12.882-32,28.718
	v198.559c0,15.844,14.359,28.718,32,28.718h298.666c25.859,0,48.078-4.124,66.062-12.218c14.953-6.75,27.015-16.25,35.858-28.219
	c15.234-20.624,15.406-41.562,15.406-42.437C447.992,283.401,447.867,242.652,436.976,201.184z"/>
<path style="fill:#4FC2E9;" d="M0.001,261.332h446.851c-1.281-15.914-4.031-37.93-9.875-60.147
	c-2.156-8.234-4.844-16.781-8.172-25.188H0.001V261.332z"/>
<path style="fill:#A0D468;" d="M287.996,154.662h-85.327c-5.891,0-10.672,4.781-10.672,10.672v192.004
	c0,5.875,4.781,10.655,10.672,10.655h85.327c5.905,0,10.671-4.78,10.671-10.655V165.334
	C298.667,159.443,293.901,154.662,287.996,154.662z"/>
<path style="fill:#434A54;" d="M220.887,253.785c4.156,4.164,4.156,10.922,0,15.086c-4.172,4.155-10.921,4.155-15.093,0
	c-4.156-4.164-4.156-10.922,0-15.086C209.966,249.621,216.715,249.621,220.887,253.785z"/>
<rect x="95.936" y="175.996" style="fill:#3BAFDA;" width="21.343" height="85.33"/>
<path style="fill:#434A54;" d="M170.669,314.65c-12.734,0-24.171,5.625-31.999,14.5c-7.828-8.875-19.266-14.5-32-14.5
	c-23.531,0-42.671,19.156-42.671,42.688c0,23.515,19.141,42.655,42.671,42.655c12.734,0,24.171-5.625,32-14.5
	c7.828,8.875,19.265,14.5,31.999,14.5c23.531,0,42.671-19.141,42.671-42.655C213.341,333.807,194.2,314.65,170.669,314.65z"/>
<g>
	<path style="fill:#F5F7FA;" d="M114.217,349.775c4.156,4.172,4.156,10.938,0,15.093c-4.171,4.156-10.921,4.156-15.093,0
		c-4.156-4.155-4.156-10.921,0-15.093C103.296,345.619,110.046,345.619,114.217,349.775z"/>
	<path style="fill:#F5F7FA;" d="M178.216,349.775c4.156,4.172,4.156,10.938,0,15.093c-4.172,4.156-10.922,4.156-15.093,0
		c-4.156-4.155-4.156-10.921,0-15.093C167.294,345.619,174.044,345.619,178.216,349.775z"/>
</g>
</svg>